<svg width="16" height="8" viewBox="0 0 16 8" fill="none" xmlns="http://www.w3.org/2000/svg">
  <mask id="path-header-arrow" fill="white">
    <path d="M0.416506 0.666992L7.854 7.75033L15.2915 0.666992" />
  </mask>
  <path
    d="M1.79582 -0.781284L0.347541 -2.16059L-2.41108 0.735957L-0.962805 2.11527L1.79582 -0.781284ZM7.854 7.75033L6.47469 9.1986C7.24711 9.93423 8.4609 9.93423 9.23332 9.1986L7.854 7.75033ZM16.6708 2.11527L18.1191 0.735958L15.3605 -2.16059L13.9122 -0.781284L16.6708 2.11527ZM-0.962805 2.11527L6.47469 9.1986L9.23332 6.30205L1.79582 -0.781284L-0.962805 2.11527ZM9.23332 9.1986L16.6708 2.11527L13.9122 -0.781284L6.47469 6.30205L9.23332 9.1986Z"
    fill="currentColor" mask="url(#path-header-arrow)" />
</svg>